<?xml version="1.0" encoding="UTF-8" standalone="no"?>
<svg width="256px" height="256px" viewBox="0 0 256 256" version="1.1" xmlns="http://www.w3.org/2000/svg" xmlns:xlink="http://www.w3.org/1999/xlink" preserveAspectRatio="xMidYMid">
    <defs>
        <linearGradient x1="50%" y1="99.7089111%" x2="50%" y2="0.291088878%" id="linearGradient-1">
            <stop stop-color="#E09B3D" offset="0%"></stop>
            <stop stop-color="#C74C4D" offset="30%"></stop>
            <stop stop-color="#C21975" offset="60%"></stop>
            <stop stop-color="#7024C4" offset="100%"></stop>
        </linearGradient>
    </defs>
    <g>
        <path d="M128,23.0649567 C162.180374,23.0649567 166.226758,23.1836932 179.726984,23.8211241 C192.152895,24.4060548 198.979317,26.1729078 203.485682,27.6470588 C209.464374,29.5961176 213.729317,31.9504813 218.208,36.4291647 C222.686683,40.907848 225.041047,45.1727913 226.990106,51.1514833 C228.464257,55.6578481 230.23111,62.4842704 230.815541,74.9101812 C231.453472,88.4104075 231.572209,92.4567913 231.572209,126.637165 C231.572209,160.817539 231.453472,164.863923 230.815541,178.364149 C230.23111,190.79006 228.464257,197.616482 226.990106,202.122847 C225.041047,208.101539 222.686683,212.366482 218.208,216.845165 C213.729317,221.323848 209.464374,223.678213 203.485682,225.627272 C198.979317,227.101423 192.152895,228.868276 179.726984,229.452706 C166.226758,230.090637 162.180374,230.209374 128,230.209374 C93.819626,230.209374 89.7732419,230.090637 76.2730161,229.452706 C63.847105,228.868276 57.0206827,227.101423 52.5143179,225.627272 C46.5356259,223.678213 42.2706827,221.323848 37.792,216.845165 C33.3133173,212.366482 30.9589535,208.101539 29.0098947,202.122847 C27.5357438,197.616482 25.7688908,190.79006 25.1844601,178.364149 C24.5465294,164.863923 24.4277928,160.817539 24.4277928,126.637165 C24.4277928,92.4567913 24.5465294,88.4104075 25.1844601,74.9101812 C25.7688908,62.4842704 27.5357438,55.6578481 29.0098947,51.1514833 C30.9589535,45.1727913 33.3133173,40.907848 37.792,36.4291647 C42.2706827,31.9504813 46.5356259,29.5961176 52.5143179,27.6470588 C57.0206827,26.1729078 63.847105,24.4060548 76.2730161,23.8211241 C89.7732419,23.1836932 93.819626,23.0649567 128,23.0649567 Z M128,0 C93.2367791,0 88.8783897,0.118736466 75.2266355,0.756167464 C61.6015225,1.39359846 52.2974508,3.2272276 44.1557627,6.0955725 C35.7375838,9.0843322 28.5992747,13.1680321 21.4839869,20.2833198 C14.3686992,27.3986076 10.2849993,34.5369167 7.29623964,42.9550956 C4.42789474,51.0967837 2.59426559,60.4008554 1.95683659,74.0259684 C1.31940759,87.6777227 1.20067113,92.036112 1.20067113,126.79933 C1.20067113,161.562548 1.31940759,165.920937 1.95683659,179.572692 C2.59426559,193.197805 4.42789474,202.501877 7.29623964,210.643565 C10.2849993,219.061744 14.3686992,226.200053 21.4839869,233.315341 C28.5992747,240.430628 35.7375838,244.514328 44.1557627,247.503088 C52.2974508,250.371433 61.6015225,252.205062 75.2266355,252.842493 C88.8783897,253.479924 93.2367791,253.59866 128,253.59866 C162.763221,253.59866 167.12161,253.479924 180.773364,252.842493 C194.398477,252.205062 203.702549,250.371433 211.844237,247.503088 C220.262416,244.514328 227.400725,240.430628 234.516013,233.315341 C241.631301,226.200053 245.715001,219.061744 248.70376,210.643565 C251.572105,202.501877 253.405734,193.197805 254.043163,179.572692 C254.680592,165.920937 254.799329,161.562548 254.799329,126.79933 C254.799329,92.036112 254.680592,87.6777227 254.043163,74.0259684 C253.405734,60.4008554 251.572105,51.0967837 248.70376,42.9550956 C245.715001,34.5369167 241.631301,27.3986076 234.516013,20.2833198 C227.400725,13.1680321 220.262416,9.0843322 211.844237,6.0955725 C203.702549,3.2272276 194.398477,1.39359846 180.773364,0.756167464 C167.12161,0.118736466 162.763221,0 128,0 L128,0 Z" fill="url(#linearGradient-1)"></path>
        <path d="M128,61.6398321 C91.6820034,61.6398321 62.2764787,91.0453567 62.2764787,127.363353 C62.2764787,163.68135 91.6820034,193.086874 128,193.086874 C164.317997,193.086874 193.723521,163.68135 193.723521,127.363353 C193.723521,91.0453567 164.317997,61.6398321 128,61.6398321 Z M128,169.902913 C104.323126,169.902913 85.4604398,151.040227 85.4604398,127.363353 C85.4604398,103.686479 104.323126,84.8237935 128,84.8237935 C151.676874,84.8237935 170.53956,103.686479 170.53956,127.363353 C170.53956,151.040227 151.676874,169.902913 128,169.902913 L128,169.902913 Z" fill="url(#linearGradient-1)"></path>
        <circle fill="url(#linearGradient-1)" cx="195.164" cy="59.8" r="14.8"></circle>
    </g>
</svg>
