<?xml version="1.0" encoding="UTF-8" standalone="no"?>
<svg width="256px" height="256px" viewBox="0 0 256 256" version="1.1" xmlns="http://www.w3.org/2000/svg" xmlns:xlink="http://www.w3.org/1999/xlink" preserveAspectRatio="xMidYMid">
    <g>
        <path d="M128,0 C57.307,0 0,57.307 0,128 C0,198.693 57.307,256 128,256 C198.693,256 256,198.693 256,128 C256,57.307 198.693,0 128,0" fill="#FFE812"></path>
        <path d="M128,36.92 C70.405,36.92 23.72,72.725 23.72,116.895 C23.72,146.499 43.615,172.41 73.567,186.355 L65.158,221.344 C64.947,222.188 65.095,223.085 65.563,223.799 C66.275,224.871 67.619,225.373 68.892,225.023 L110.655,205.698 C116.298,206.661 122.145,207.172 128,207.172 C185.595,207.172 232.28,171.367 232.28,127.197 C232.28,83.027 185.595,36.92 128,36.92" fill="#381F1F"></path>
    </g>
</svg>
